<svg width="22" height="22" viewBox="0 0 22 22" fill="#000" xmlns="http://www.w3.org/2000/svg">
<path d="M8.25 0H2.0625C0.925375 0 0 0.925375 0 2.0625V8.25C0 9.38713 0.925375 10.3125 2.0625 10.3125H8.25C9.38713 10.3125 10.3125 9.38713 10.3125 8.25V2.0625C10.3125 0.925375 9.38713 0 8.25 0ZM19.9375 0H13.75C12.6129 0 11.6875 0.925375 11.6875 2.0625V8.25C11.6875 9.38713 12.6129 10.3125 13.75 10.3125H19.9375C21.0746 10.3125 22 9.38713 22 8.25V2.0625C22 0.925375 21.0746 0 19.9375 0ZM19.9375 11.6875H13.75C12.6129 11.6875 11.6875 12.6129 11.6875 13.75V19.9375C11.6875 21.0746 12.6129 22 13.75 22H19.9375C21.0746 22 22 21.0746 22 19.9375V13.75C22 12.6129 21.0746 11.6875 19.9375 11.6875ZM8.25 11.6875H2.0625C0.925375 11.6875 0 12.6129 0 13.75V19.9375C0 21.0746 0.925375 22 2.0625 22H8.25C9.38713 22 10.3125 21.0746 10.3125 19.9375V13.75C10.3125 12.6129 9.38713 11.6875 8.25 11.6875Z" fill="#CACACA"/>
</svg>