<svg width="24" height="24" viewBox="0 0 24 24" fill="none" xmlns="http://www.w3.org/2000/svg">
<path d="M24 11.9482V22.0337C23.9995 22.5246 23.8043 22.9953 23.4572 23.3424C23.11 23.6895 22.6394 23.8847 22.1485 23.8852H17.0154C16.5245 23.8847 16.0539 23.6895 15.7068 23.3424C15.3597 22.9953 15.1644 22.5246 15.1639 22.0337V18.5828C15.1642 18.2635 15.1015 17.9473 14.9794 17.6522C14.8573 17.3572 14.6782 17.0891 14.4525 16.8633C14.2267 16.6375 13.9586 16.4584 13.6635 16.3363C13.3684 16.2142 13.0522 16.1515 12.7329 16.1518H11.2897C10.9704 16.1515 10.6541 16.2142 10.3591 16.3363C10.064 16.4584 9.79592 16.6375 9.57013 16.8633C9.34434 17.0891 9.16528 17.3572 9.04319 17.6522C8.92111 17.9473 8.8584 18.2635 8.85864 18.5828V22.0337C8.85815 22.5246 8.66292 22.9953 8.3158 23.3424C7.96868 23.6895 7.49803 23.8847 7.00713 23.8852H1.85151C1.36061 23.8847 0.889962 23.6895 0.542845 23.3424C0.195727 22.9953 0.000498121 22.5246 0 22.0337L0 11.9482C0.000106278 11.5196 0.0856966 11.0954 0.251763 10.7002C0.417829 10.3051 0.661035 9.94704 0.96715 9.64703L9.743 1.03676C10.3461 0.446063 11.1567 0.115234 12.0009 0.115234C12.8452 0.115234 13.6557 0.446063 14.2589 1.03676L23.0347 9.64703C23.3403 9.94739 23.5829 10.3055 23.7487 10.7006C23.9144 11.0957 23.9998 11.5198 24 11.9482Z" fill="#CACACA"/>
</svg>