<svg width="13" height="13" viewBox="0 0 13 13" fill="none" xmlns="http://www.w3.org/2000/svg">
<path d="M4.64949 2.21521C5.47302 0.738402 5.88446 0 6.5 0C7.11554 0 7.52698 0.738402 8.35051 2.21521L8.5637 2.59741C8.7977 3.01731 8.91469 3.22726 9.09669 3.36571C9.27868 3.50416 9.50618 3.55551 9.96117 3.65821L10.3746 3.75181C11.9735 4.11386 12.7724 4.29456 12.9628 4.90622C13.1526 5.51722 12.6079 6.15487 11.5179 7.42952L11.2358 7.75907C10.9264 8.12113 10.771 8.30247 10.7015 8.52608C10.632 8.75033 10.6554 8.99213 10.7022 9.47508L10.745 9.91513C10.9095 11.6162 10.992 12.4664 10.4942 12.844C9.99627 13.2223 9.24749 12.8772 7.75122 12.1882L7.36318 12.0101C6.93809 11.8138 6.72554 11.7163 6.5 11.7163C6.27446 11.7163 6.06191 11.8138 5.63682 12.0101L5.24943 12.1882C3.75251 12.8772 3.00373 13.2217 2.50649 12.8447C2.00796 12.4664 2.0905 11.6162 2.25495 9.91513L2.29785 9.47573C2.34465 8.99213 2.36805 8.75033 2.29785 8.52673C2.22895 8.30248 2.0736 8.12113 1.76421 7.75972L1.48212 7.42952C0.392094 6.15552 -0.152594 5.51787 0.0372019 4.90622C0.227647 4.29456 1.02713 4.11321 2.62609 3.75181L3.03948 3.65821C3.49382 3.55551 3.72067 3.50416 3.90331 3.36571C4.08531 3.22726 4.2023 3.01731 4.4363 2.59741L4.64949 2.21521Z" fill="#CACACA"/>
</svg>