<svg width="20" height="24" viewBox="0 0 20 24" fill="none" xmlns="http://www.w3.org/2000/svg">
<path d="M19.8292 16.9615V19.0261C19.8344 19.7348 19.6128 20.4266 19.1968 21.0004C18.7808 21.5742 18.1921 21.9998 17.5168 22.2152C15.0854 22.9844 12.5502 23.3756 10 23.375C7.46821 23.3747 4.95123 22.9889 2.53556 22.231C1.85049 22.0199 1.25116 21.5947 0.825539 21.0179C0.399918 20.441 0.170434 19.7429 0.170777 19.0261V16.9615C0.171052 16.2634 0.389338 15.5827 0.795155 15.0147C1.20097 14.4466 1.77406 14.0194 2.4344 13.7928C3.32009 13.484 4.1811 13.1085 5.01003 12.6695C5.34627 12.4959 5.72218 12.4135 6.10022 12.4306C6.47826 12.4477 6.84519 12.5637 7.16437 12.767C8.0078 13.3171 8.99303 13.61 10 13.61C11.007 13.61 11.9922 13.3171 12.8356 12.767C13.1548 12.5638 13.5216 12.4478 13.8996 12.4307C14.2775 12.4136 14.6534 12.4959 14.9896 12.6695C15.819 13.1079 16.68 13.4835 17.5656 13.7932C18.2263 14.019 18.7998 14.446 19.2058 15.0141C19.6117 15.5823 19.8297 16.2632 19.8292 16.9615ZM5.37524 5.5784C4.90196 1.10965 10.6029 -1.03535 13.5173 2.13421C13.9334 2.59834 14.2471 3.14492 14.4379 3.73835C14.6287 4.33177 14.6924 4.95873 14.6247 5.5784L14.4094 7.52962C14.1701 9.72012 12.3408 12.0691 10 12.0691C7.65918 12.0691 5.82984 9.72012 5.59056 7.52962L5.37524 5.5784Z" fill="#CACACA"/>
</svg>